<?xml version="1.0" encoding="UTF-8"?>
<svg id="svg3" width="64" height="64" version="1.1" viewBox="0 0 16.933 16.933" xmlns="http://www.w3.org/2000/svg" xmlns:xlink="http://www.w3.org/1999/xlink">
 <path id="rect2" d="m3.9 0.020082c-1.061 0-2.0198 0.42308-2.7292 1.1101h14.591c-0.70933-0.68698-1.6682-1.1101-2.7292-1.1101z" fill="#0aa"/>
 <path id="rect11" d="m16.632 14.522c-0.0016 0.0039-0.0026 8e-3 -0.0041 0.01188h-16.331c0.52027 1.2714 1.6838 2.2053 3.0928 2.3988h10.155c1.4097-0.19353 2.5747-1.1281 3.0948-2.4003-0.0024-0.0035-0.0049-0.0068-0.0072-0.01033z" fill="#010000"/>
 <g id="g11" transform="translate(9.5587 3.6146)" stroke-miterlimit="3.7" stroke-width=".34205">
  <rect id="rect5" x="-6.9561" y="-3.1828" width="1.8825" height=".41076" ry=".0054686" style="paint-order:fill markers stroke"/>
  <rect id="rect6" x="-4.5918" y="-3.1828" width="1.8825" height=".41076" ry=".0054686" style="paint-order:fill markers stroke"/>
  <rect id="rect7" x="-2.2273" y="-3.1828" width="1.8825" height=".41076" ry=".0054686" style="paint-order:fill markers stroke"/>
  <rect id="rect8" x=".13699" y="-3.1828" width="1.8825" height=".41076" ry=".0054686" style="paint-order:fill markers stroke"/>
 </g>
 <g id="g13" transform="matrix(1.3832 0 0 1.448 27.294 -6.1)">
  <rect id="a-8" x="-16.825" y="14.629" width="1.1757" height=".63384" ry=".0084385" fill="#0aa" stroke-miterlimit="3.7" stroke-width=".33577" style="paint-order:fill markers stroke"/>
  <use id="use10" transform="translate(-1.7508)" xlink:href="#a-8"/>
  <use id="use11" transform="translate(1.7508)" xlink:href="#a-8"/>
  <use id="use12" transform="translate(7.0032)" xlink:href="#a-8"/>
  <use id="use13" transform="translate(5.2525)" xlink:href="#a-8"/>
  <use id="use14" transform="translate(3.5016)" xlink:href="#a-8"/>
 </g>
 <path id="path11" d="m1.162 1.1301c-0.59007 0.58308-0.99267 1.3533-1.1219 2.216v10.289c0.047297 0.31372 0.13113 0.61449 0.24725 0.89884h16.357c0.13269-0.3247 0.22277-0.67095 0.26484-1.0331v-10.03c-0.10748-0.91337-0.52205-1.7297-1.1406-2.3409z" fill="#00f" stroke-miterlimit="3.7" stroke-width="1.002" style="paint-order:fill markers stroke"/>
 <rect id="rect18" x=".96782" y="12.984" width="8.7339" height=".92856" ry=".027891" fill="#fff" stroke-miterlimit="3.7" stroke-width="1.1999" style="paint-order:fill markers stroke"/>
 <rect id="rect20" x="8.6144" y="1.8809" width="7.5321" height="10.5" ry=".0061545" fill="#00f" opacity=".59947" stroke="#fefefe" stroke-miterlimit="3.7" stroke-width=".090206" style="paint-order:fill markers stroke"/>
 <rect id="rect21" transform="rotate(90)" x="2.1564" y="-10.021" width="10.009" height=".10673" ry=".0032057" fill="#9898fe" stroke-miterlimit="3.7" stroke-width=".4355" style="paint-order:fill markers stroke"/>
 <rect id="rect22" transform="rotate(90)" x="2.1564" y="-12.187" width="10.009" height=".10673" ry=".0032057" fill="#9898fe" stroke-miterlimit="3.7" stroke-width=".4355" style="paint-order:fill markers stroke"/>
 <rect id="rect23" transform="scale(-1,1)" x="-8.4841" y="1.8809" width="7.5321" height="10.5" ry="0" fill="#00f" opacity=".59947" stroke="#fefefe" stroke-miterlimit="3.7" stroke-width=".090206" style="paint-order:fill markers stroke"/>
 <rect id="rect24" transform="matrix(0,1,1,0,0,0)" x="2.1564" y="7.0781" width="10.009" height=".10673" ry=".0032057" fill="#9898fe" stroke-miterlimit="3.7" stroke-width=".4355" style="paint-order:fill markers stroke"/>
 <rect id="rect25" transform="matrix(0,1,1,0,0,0)" x="2.1564" y="4.9114" width="10.009" height=".10673" ry=".0032057" fill="#9898fe" stroke-miterlimit="3.7" stroke-width=".4355" style="paint-order:fill markers stroke"/>
 <g id="g34" transform="matrix(.25009 0 0 .57437 .53574 -5.2868)" fill="#fff" stroke-miterlimit="3.7">
  <path id="rect32" d="m2.8029 15.723h14.058c0.01145 0 0.02067 0.0092 0.02067 0.02067v1.5112c0 0.01145-0.0092 0.02067-0.02067 0.02067h-14.058c-0.011451 0-0.020669-0.0092-0.020669-0.02067v-1.5112c0-0.01145 0.00922-0.02067 0.020669-0.02067z" stroke-width="1.8198" style="paint-order:fill markers stroke"/>
  <path id="rect33" d="m19.21 15.723h5.067c0.01145 0 0.02067 0.0092 0.02067 0.02067v1.5112c0 0.01145-0.0092 0.02067-0.02067 0.02067h-5.067c-0.01145 0-0.02067-0.0092-0.02067-0.02067v-1.5112c0-0.01145 0.0092-0.02067 0.02067-0.02067z" stroke-width="1.0954" style="paint-order:fill markers stroke"/>
  <path id="rect34" d="m27.142 15.723h3.5558c0.01145 0 0.02067 0.0092 0.02067 0.02067v1.5112c0 0.01145-0.0092 0.02067-0.02067 0.02067h-3.5558c-0.01145 0-0.02067-0.0092-0.02067-0.02067v-1.5112c0-0.01145 0.0092-0.02067 0.02067-0.02067z" stroke-width=".91918" style="paint-order:fill markers stroke"/>
 </g>
 <g id="g3" fill="#f7fe57" stroke-miterlimit="3.7">
  <rect id="rect27" x="1.2366" y="2.0852" width="2.1287" height=".89271" ry=".011885" stroke-width=".53619" style="paint-order:fill markers stroke"/>
  <rect id="rect1" x="5.2127" y="2.0852" width="1.6467" height=".89271" ry=".011885" stroke-width=".4716" style="paint-order:fill markers stroke"/>
  <rect id="rect3" x="7.3012" y="2.0852" width="1.0041" height=".89271" ry=".011885" stroke-width=".36826" style="paint-order:fill markers stroke"/>
 </g>
 <g id="g10" transform="matrix(-1 0 0 1 17.052 0)" fill="#f7fe57" stroke-miterlimit="3.7">
  <rect id="rect4" x="1.2366" y="2.0852" width="2.1287" height=".89271" ry=".011885" stroke-width=".53619" style="paint-order:fill markers stroke"/>
  <rect id="rect9" x="5.2127" y="2.0852" width="1.6467" height=".89271" ry=".011885" stroke-width=".4716" style="paint-order:fill markers stroke"/>
  <rect id="rect10" x="7.3012" y="2.0852" width="1.0041" height=".89271" ry=".011885" stroke-width=".36826" style="paint-order:fill markers stroke"/>
 </g>
 <g id="g14" transform="matrix(-.25009 0 0 .57437 16.505 -5.2868)" fill="#fff" stroke-miterlimit="3.7">
  <path id="path10" d="m2.8029 15.723h14.058c0.01145 0 0.02067 0.0092 0.02067 0.02067v1.5112c0 0.01145-0.0092 0.02067-0.02067 0.02067h-14.058c-0.011451 0-0.020669-0.0092-0.020669-0.02067v-1.5112c0-0.01145 0.00922-0.02067 0.020669-0.02067z" stroke-width="1.8198" style="paint-order:fill markers stroke"/>
  <path id="path12" d="m19.21 15.723h5.067c0.01145 0 0.02067 0.0092 0.02067 0.02067v1.5112c0 0.01145-0.0092 0.02067-0.02067 0.02067h-5.067c-0.01145 0-0.02067-0.0092-0.02067-0.02067v-1.5112c0-0.01145 0.0092-0.02067 0.02067-0.02067z" stroke-width="1.0954" style="paint-order:fill markers stroke"/>
  <path id="path13" d="m27.142 15.723h3.5558c0.01145 0 0.02067 0.0092 0.02067 0.02067v1.5112c0 0.01145-0.0092 0.02067-0.02067 0.02067h-3.5558c-0.01145 0-0.02067-0.0092-0.02067-0.02067v-1.5112c0-0.01145 0.0092-0.02067 0.02067-0.02067z" stroke-width=".91918" style="paint-order:fill markers stroke"/>
 </g>
 <g id="g16" transform="matrix(.25009 0 0 .57437 .53574 -3.6396)" fill="#fff" stroke-miterlimit="3.7">
  <path id="path14" d="m2.8029 15.723h14.058c0.01145 0 0.02067 0.0092 0.02067 0.02067v1.5112c0 0.01145-0.0092 0.02067-0.02067 0.02067h-14.058c-0.011451 0-0.020669-0.0092-0.020669-0.02067v-1.5112c0-0.01145 0.00922-0.02067 0.020669-0.02067z" stroke-width="1.8198" style="paint-order:fill markers stroke"/>
  <path id="path15" d="m19.21 15.723h5.067c0.01145 0 0.02067 0.0092 0.02067 0.02067v1.5112c0 0.01145-0.0092 0.02067-0.02067 0.02067h-5.067c-0.01145 0-0.02067-0.0092-0.02067-0.02067v-1.5112c0-0.01145 0.0092-0.02067 0.02067-0.02067z" stroke-width="1.0954" style="paint-order:fill markers stroke"/>
  <path id="path16" d="m27.142 15.723h3.5558c0.01145 0 0.02067 0.0092 0.02067 0.02067v1.5112c0 0.01145-0.0092 0.02067-0.02067 0.02067h-3.5558c-0.01145 0-0.02067-0.0092-0.02067-0.02067v-1.5112c0-0.01145 0.0092-0.02067 0.02067-0.02067z" stroke-width=".91918" style="paint-order:fill markers stroke"/>
 </g>
 <path id="path17" d="m1.2356 7.0383h2.7229c0.00222 0 4e-3 0.00528 4e-3 0.011872v0.86796c0 0.00658-0.00178 0.011872-4e-3 0.011872h-2.7229c-0.00221 0-4e-3 -0.00528-4e-3 -0.011872v-0.86796c0-0.00658 0.00179-0.011872 4e-3 -0.011872z" fill="#0aa" stroke-miterlimit="3.7" stroke-width=".60698" style="paint-order:fill markers stroke"/>
 <path id="path18" d="m5.3399 7.0383h1.2672c0.00286 0 0.00517 0.00528 0.00517 0.011872v0.86796c0 0.00658-0.0023 0.011872-0.00517 0.011872h-1.2672c-0.00286 0-0.00517-0.00528-0.00517-0.011872v-0.86796c0-0.00658 0.0023-0.011872 0.00517-0.011872z" fill="#0aa" stroke-miterlimit="3.7" stroke-width=".41516" style="paint-order:fill markers stroke"/>
 <path id="path19" d="m7.3237 7.0383h0.88927c0.00286 0 0.00517 0.00528 0.00517 0.011872v0.86796c0 0.00658-0.0023 0.011872-0.00517 0.011872h-0.88927c-0.00286 0-0.00517-0.00528-0.00517-0.011872v-0.86796c0-0.00658 0.0023-0.011872 0.00517-0.011872z" fill="#0aa" stroke-miterlimit="3.7" stroke-width=".34837" style="paint-order:fill markers stroke"/>
 <rect id="rect47" x="4.8655" y="5.3569" width="7.2021" height="3.9472" ry=".0054686" fill="#fe0c0c" stroke-width=".26458" style="paint-order:fill markers stroke"/>
 <rect id="rect48" transform="rotate(-90)" x="-8.4006" y="5.4137" width="2.1401" height="6.1059" ry=".0035789" fill="#fe0c0c" stroke="#fefefe" stroke-miterlimit="3.7" stroke-width=".08493" style="paint-order:fill markers stroke"/>
</svg>
